<svg width="9" height="9" viewBox="0 0 9 9" fill="none" xmlns="http://www.w3.org/2000/svg">
<path d="M8.4375 0.8431L6.18553 0.843109V0.282577C6.18553 0.127187 6.05967 0.00132751 5.90428 0.00132751C5.74889 0.00132751 5.62303 0.127187 5.62303 0.282577V0.842968H3.37303V0.282577C3.37303 0.127187 3.24717 0.00132751 3.09178 0.00132751C2.93639 0.00132751 2.81053 0.127187 2.81053 0.282577V0.842968H0.5625C0.251859 0.842968 0 1.09483 0 1.40547V8.43672C0 8.74735 0.251859 8.99922 0.5625 8.99922H8.4375C8.74814 8.99922 9 8.74735 9 8.43672V1.40547C9 1.09496 8.74814 0.8431 8.4375 0.8431ZM8.4375 8.43672H0.5625V1.40547H2.81053V1.68883C2.81053 1.84421 2.93639 1.97008 3.09178 1.97008C3.24717 1.97008 3.37303 1.84421 3.37303 1.68883V1.40561H5.62303V1.68897C5.62303 1.84436 5.74889 1.97022 5.90428 1.97022C6.05967 1.97022 6.18553 1.84436 6.18553 1.68897V1.40561H8.4375V8.43672ZM6.46875 4.49935H7.03125C7.1865 4.49935 7.3125 4.37335 7.3125 4.2181V3.6556C7.3125 3.50035 7.1865 3.37435 7.03125 3.37435H6.46875C6.3135 3.37435 6.1875 3.50035 6.1875 3.6556V4.2181C6.1875 4.37335 6.3135 4.49935 6.46875 4.49935ZM6.46875 6.74921H7.03125C7.1865 6.74921 7.3125 6.62335 7.3125 6.46796V5.90546C7.3125 5.75021 7.1865 5.62421 7.03125 5.62421H6.46875C6.3135 5.62421 6.1875 5.75021 6.1875 5.90546V6.46796C6.1875 6.62349 6.3135 6.74921 6.46875 6.74921ZM4.78125 5.62421H4.21875C4.0635 5.62421 3.9375 5.75021 3.9375 5.90546V6.46796C3.9375 6.62335 4.0635 6.74921 4.21875 6.74921H4.78125C4.9365 6.74921 5.0625 6.62335 5.0625 6.46796V5.90546C5.0625 5.75035 4.9365 5.62421 4.78125 5.62421ZM4.78125 3.37435H4.21875C4.0635 3.37435 3.9375 3.50035 3.9375 3.6556V4.2181C3.9375 4.37335 4.0635 4.49935 4.21875 4.49935H4.78125C4.9365 4.49935 5.0625 4.37335 5.0625 4.2181V3.6556C5.0625 3.50021 4.9365 3.37435 4.78125 3.37435ZM2.53125 3.37435H1.96875C1.8135 3.37435 1.6875 3.50035 1.6875 3.6556V4.2181C1.6875 4.37335 1.8135 4.49935 1.96875 4.49935H2.53125C2.6865 4.49935 2.8125 4.37335 2.8125 4.2181V3.6556C2.8125 3.50021 2.6865 3.37435 2.53125 3.37435ZM2.53125 5.62421H1.96875C1.8135 5.62421 1.6875 5.75021 1.6875 5.90546V6.46796C1.6875 6.62335 1.8135 6.74921 1.96875 6.74921H2.53125C2.6865 6.74921 2.8125 6.62335 2.8125 6.46796V5.90546C2.8125 5.75035 2.6865 5.62421 2.53125 5.62421Z" fill="#BCBCBC"/>
</svg>
