<svg width="10" height="10" viewBox="0 0 10 10" fill="none" xmlns="http://www.w3.org/2000/svg">
<path d="M5.25587 0.920827C5.18273 0.86393 5.09271 0.833038 5.00004 0.833038C4.90737 0.833038 4.81735 0.86393 4.74421 0.920827L1.31587 3.58749C1.16552 3.70445 1.04389 3.85422 0.960269 4.02537C0.876645 4.19652 0.833242 4.38451 0.833374 4.57499V8.33333C0.833374 8.55434 0.921172 8.7663 1.07745 8.92258C1.23373 9.07886 1.44569 9.16666 1.66671 9.16666H3.33337C3.55439 9.16666 3.76635 9.07886 3.92263 8.92258C4.07891 8.7663 4.16671 8.55434 4.16671 8.33333V5.83333H5.83337V8.33333C5.83337 8.55434 5.92117 8.7663 6.07745 8.92258C6.23373 9.07886 6.44569 9.16666 6.66671 9.16666H8.33337C8.55439 9.16666 8.76635 9.07886 8.92263 8.92258C9.07891 8.7663 9.16671 8.55434 9.16671 8.33333V4.57499C9.16674 4.38444 9.12321 4.1964 9.03944 4.02525C8.95567 3.8541 8.83388 3.70437 8.68337 3.58749L5.25587 0.920827Z" fill="#028960"/>
</svg>
