<svg width="10" height="10" viewBox="0 0 10 10" fill="none" xmlns="http://www.w3.org/2000/svg">
<path d="M9.0305 7.73056C8.76264 7.49176 8.52813 7.21801 8.33328 6.91667C8.12056 6.50071 7.99307 6.04645 7.95828 5.58056V4.20833C7.96012 3.47656 7.69467 2.7693 7.21182 2.21944C6.72896 1.66958 6.06193 1.31496 5.33606 1.22222V0.863891C5.33606 0.765539 5.29699 0.671217 5.22744 0.601672C5.1579 0.532127 5.06357 0.493057 4.96522 0.493057C4.86687 0.493057 4.77255 0.532127 4.70301 0.601672C4.63346 0.671217 4.59439 0.765539 4.59439 0.863891V1.22778C3.87502 1.3272 3.21605 1.68396 2.73954 2.23198C2.26303 2.77999 2.00126 3.48212 2.00272 4.20833V5.58056C1.96793 6.04645 1.84044 6.50071 1.62772 6.91667C1.4363 7.21732 1.20556 7.49104 0.941612 7.73056C0.911982 7.75659 0.888235 7.78863 0.871951 7.82455C0.855666 7.86047 0.847218 7.89945 0.847168 7.93889V8.31667C0.847168 8.39034 0.876434 8.46099 0.928527 8.51309C0.980621 8.56518 1.05127 8.59445 1.12495 8.59445H8.84717C8.92084 8.59445 8.99149 8.56518 9.04359 8.51309C9.09568 8.46099 9.12495 8.39034 9.12495 8.31667V7.93889C9.1249 7.89945 9.11645 7.86047 9.10016 7.82455C9.08388 7.78863 9.06013 7.75659 9.0305 7.73056ZM1.42495 8.03889C1.68339 7.78922 1.91095 7.50945 2.10272 7.20556C2.37067 6.70319 2.52701 6.1489 2.56106 5.58056V4.20833C2.55004 3.88279 2.60465 3.55836 2.72162 3.25435C2.8386 2.95035 3.01556 2.673 3.24196 2.43881C3.46836 2.20462 3.73957 2.01838 4.03944 1.89119C4.33931 1.764 4.66171 1.69845 4.98745 1.69845C5.31318 1.69845 5.63558 1.764 5.93545 1.89119C6.23532 2.01838 6.50653 2.20462 6.73293 2.43881C6.95933 2.673 7.13629 2.95035 7.25327 3.25435C7.37024 3.55836 7.42485 3.88279 7.41384 4.20833V5.58056C7.44788 6.1489 7.60422 6.70319 7.87217 7.20556C8.06395 7.50945 8.2915 7.78922 8.54995 8.03889H1.42495Z" fill="#BCBCBC"/>
<path d="M5.00006 9.52222C5.17504 9.51819 5.34296 9.4524 5.47412 9.3365C5.60527 9.2206 5.69121 9.06204 5.71673 8.88889H4.25562C4.28186 9.06675 4.37182 9.22903 4.50875 9.34553C4.64569 9.46203 4.82029 9.52482 5.00006 9.52222Z" fill="#BCBCBC"/>
</svg>
