<svg width="10" height="10" viewBox="0 0 10 10" fill="none" xmlns="http://www.w3.org/2000/svg">
<path fill-rule="evenodd" clip-rule="evenodd" d="M6.80207 6.20791L9.04373 8.44958C9.12253 8.52842 9.16677 8.63534 9.16673 8.74681C9.16669 8.85828 9.12237 8.96516 9.04353 9.04395C8.96468 9.12274 8.85776 9.16699 8.74629 9.16695C8.63483 9.16691 8.52794 9.12259 8.44915 9.04375L6.20748 6.80208C5.53736 7.32111 4.69468 7.56536 3.85087 7.48514C3.00706 7.40492 2.2255 7.00626 1.66519 6.37025C1.10487 5.73424 0.807897 4.90867 0.834673 4.06147C0.861449 3.21428 1.20996 2.4091 1.80932 1.80975C2.40868 1.21039 3.21385 0.861876 4.06105 0.8351C4.90824 0.808325 5.73381 1.1053 6.36982 1.66561C7.00583 2.22593 7.40449 3.00749 7.48471 3.8513C7.56493 4.69511 7.32068 5.53779 6.80165 6.20791H6.80207ZM4.16665 6.66666C4.82969 6.66666 5.46558 6.40327 5.93442 5.93443C6.40326 5.46559 6.66665 4.8297 6.66665 4.16666C6.66665 3.50362 6.40326 2.86774 5.93442 2.3989C5.46558 1.93005 4.82969 1.66666 4.16665 1.66666C3.50361 1.66666 2.86773 1.93005 2.39888 2.3989C1.93004 2.86774 1.66665 3.50362 1.66665 4.16666C1.66665 4.8297 1.93004 5.46559 2.39888 5.93443C2.86773 6.40327 3.50361 6.66666 4.16665 6.66666Z" fill="#BCBCBC"/>
</svg>
